<svg version="1.2" xmlns="http://www.w3.org/2000/svg" viewBox="0 -96 499 700">
	<title>cartes_dos-svg</title>
	<style>
		.s0 { fill: #8b93bc } 
		.s1 { fill: #ffffff } 
		.s2 { fill: #2f3247 } 
		.s3 { fill: none;stroke: #ffffff;stroke-miterlimit:10;stroke-width: .5 } 
		.s4 { fill: none;stroke: #ffffff;stroke-miterlimit:10 } 
	</style>
	<g id="BACKGROUND">
	</g>
	<g id="OBJECTS">
		<g id="&lt;Group&gt;">
			<g id="&lt;Group&gt;">
			</g>
			<g id="&lt;Group&gt;">
			</g>
			<g id="&lt;Group&gt;">
			</g>
			<g id="&lt;Group&gt;">
			</g>
			<g id="&lt;Group&gt;">
				<g id="&lt;Group&gt;">
				</g>
				<g id="&lt;Group&gt;">
				</g>
				<g id="&lt;Clip Group&gt;">
					<g id="&lt;Group&gt;">
					</g>
				</g>
			</g>
			<g id="&lt;Group&gt;">
				<g id="&lt;Group&gt;">
				</g>
				<g id="&lt;Group&gt;">
				</g>
				<g id="&lt;Clip Group&gt;">
					<g id="&lt;Group&gt;">
					</g>
				</g>
			</g>
			<g id="&lt;Group&gt;">
				<g id="&lt;Group&gt;">
				</g>
				<g id="&lt;Group&gt;">
				</g>
				<g id="&lt;Clip Group&gt;">
					<g id="&lt;Group&gt;">
					</g>
				</g>
			</g>
			<g id="&lt;Group&gt;">
				<g id="&lt;Group&gt;">
				</g>
				<g id="&lt;Group&gt;">
				</g>
				<g id="&lt;Clip Group&gt;">
					<g id="&lt;Group&gt;">
					</g>
				</g>
			</g>
			<g id="&lt;Group&gt;">
				<g id="&lt;Clip Group&gt;">
					<g id="&lt;Group&gt;">
					</g>
				</g>
			</g>
			<g id="&lt;Group&gt;">
			</g>
			<g id="&lt;Group&gt;">
				<g id="&lt;Clip Group&gt;">
					<g id="&lt;Group&gt;">
					</g>
				</g>
			</g>
			<g id="&lt;Group&gt;">
				<g id="&lt;Group&gt;">
					<g id="&lt;Group&gt;">
						<g id="&lt;Group&gt;">
							<g id="&lt;Clip Group&gt;">
								<g id="&lt;Group&gt;">
								</g>
							</g>
						</g>
					</g>
					<g id="&lt;Group&gt;">
						<g id="&lt;Group&gt;">
							<g id="&lt;Clip Group&gt;">
								<g id="&lt;Group&gt;">
								</g>
							</g>
						</g>
					</g>
				</g>
				<g id="&lt;Group&gt;">
					<g id="&lt;Group&gt;">
						<g id="&lt;Group&gt;">
							<g id="&lt;Clip Group&gt;">
								<g id="&lt;Group&gt;">
								</g>
							</g>
						</g>
					</g>
					<g id="&lt;Group&gt;">
						<g id="&lt;Group&gt;">
							<g id="&lt;Clip Group&gt;">
								<g id="&lt;Group&gt;">
								</g>
							</g>
						</g>
					</g>
				</g>
			</g>
			<g id="&lt;Group&gt;">
				<g id="&lt;Group&gt;">
					<g id="&lt;Group&gt;">
						<g id="&lt;Group&gt;">
							<g id="&lt;Clip Group&gt;">
								<g id="&lt;Group&gt;">
								</g>
							</g>
						</g>
					</g>
					<g id="&lt;Group&gt;">
						<g id="&lt;Group&gt;">
							<g id="&lt;Clip Group&gt;">
								<g id="&lt;Group&gt;">
								</g>
							</g>
						</g>
					</g>
				</g>
				<g id="&lt;Group&gt;">
					<g id="&lt;Group&gt;">
						<g id="&lt;Group&gt;">
							<g id="&lt;Clip Group&gt;">
								<g id="&lt;Group&gt;">
								</g>
							</g>
						</g>
					</g>
					<g id="&lt;Group&gt;">
						<g id="&lt;Group&gt;">
							<g id="&lt;Clip Group&gt;">
								<g id="&lt;Group&gt;">
								</g>
							</g>
						</g>
					</g>
				</g>
			</g>
		</g>
		<g id="&lt;Group&gt;">
			<g id="&lt;Group&gt;">
				<g id="&lt;Group&gt;">
				</g>
			</g>
			<g id="&lt;Group&gt;">
				<g id="&lt;Group&gt;">
				</g>
				<g id="&lt;Group&gt;">
				</g>
			</g>
			<g id="&lt;Group&gt;">
				<g id="&lt;Group&gt;">
				</g>
				<g id="&lt;Group&gt;">
				</g>
			</g>
			<g id="&lt;Group&gt;">
				<g id="&lt;Group&gt;">
				</g>
				<g id="&lt;Group&gt;">
				</g>
			</g>
			<g id="&lt;Group&gt;">
				<g id="&lt;Group&gt;">
				</g>
				<g id="&lt;Group&gt;">
				</g>
			</g>
			<g id="&lt;Group&gt;">
				<g id="&lt;Group&gt;">
				</g>
				<g id="&lt;Group&gt;">
				</g>
			</g>
			<g id="&lt;Group&gt;">
				<g id="&lt;Group&gt;">
				</g>
				<g id="&lt;Group&gt;">
				</g>
			</g>
			<g id="&lt;Group&gt;">
				<g id="&lt;Group&gt;">
				</g>
				<g id="&lt;Group&gt;">
				</g>
			</g>
			<g id="&lt;Group&gt;">
				<g id="&lt;Group&gt;">
				</g>
				<g id="&lt;Group&gt;">
				</g>
			</g>
			<g id="&lt;Group&gt;">
				<g id="&lt;Group&gt;">
				</g>
				<g id="&lt;Group&gt;">
				</g>
			</g>
			<g id="&lt;Group&gt;">
				<g id="&lt;Group&gt;">
				</g>
				<g id="&lt;Group&gt;">
				</g>
			</g>
			<g id="&lt;Group&gt;">
				<g id="&lt;Group&gt;">
				</g>
				<g id="&lt;Group&gt;">
				</g>
			</g>
			<g id="&lt;Group&gt;">
				<g id="&lt;Group&gt;">
				</g>
				<g id="&lt;Group&gt;">
				</g>
			</g>
			<g id="&lt;Group&gt;">
				<g id="&lt;Group&gt;">
				</g>
				<g id="&lt;Group&gt;">
				</g>
			</g>
			<g id="&lt;Group&gt;">
				<g id="&lt;Group&gt;">
				</g>
				<g id="&lt;Group&gt;">
				</g>
			</g>
			<g id="&lt;Group&gt;">
				<g id="&lt;Group&gt;">
				</g>
				<g id="&lt;Group&gt;">
				</g>
			</g>
			<g id="&lt;Group&gt;">
				<g id="&lt;Group&gt;">
				</g>
				<g id="&lt;Group&gt;">
				</g>
			</g>
			<g id="&lt;Group&gt;">
				<g id="&lt;Group&gt;">
				</g>
				<g id="&lt;Group&gt;">
				</g>
			</g>
			<g id="&lt;Group&gt;">
				<g id="&lt;Group&gt;">
				</g>
				<g id="&lt;Group&gt;">
				</g>
			</g>
			<g id="&lt;Group&gt;">
				<g id="&lt;Group&gt;">
				</g>
				<g id="&lt;Group&gt;">
				</g>
			</g>
			<g id="&lt;Group&gt;">
				<g id="&lt;Group&gt;">
				</g>
				<g id="&lt;Group&gt;">
				</g>
			</g>
			<g id="&lt;Group&gt;">
				<g id="&lt;Group&gt;">
				</g>
				<g id="&lt;Group&gt;">
				</g>
			</g>
			<g id="&lt;Group&gt;">
				<g id="&lt;Group&gt;">
				</g>
				<g id="&lt;Group&gt;">
				</g>
			</g>
			<g id="&lt;Group&gt;">
				<g id="&lt;Group&gt;">
				</g>
				<g id="&lt;Group&gt;">
				</g>
			</g>
			<g id="&lt;Group&gt;">
				<g id="&lt;Group&gt;">
				</g>
				<g id="&lt;Group&gt;">
				</g>
			</g>
			<g id="&lt;Group&gt;">
				<g id="&lt;Group&gt;">
				</g>
				<g id="&lt;Group&gt;">
				</g>
				<g id="&lt;Group&gt;">
				</g>
				<g id="&lt;Group&gt;">
				</g>
				<g id="&lt;Group&gt;">
				</g>
				<g id="&lt;Group&gt;">
				</g>
				<g id="&lt;Group&gt;">
				</g>
				<g id="&lt;Group&gt;">
				</g>
				<g id="&lt;Group&gt;">
				</g>
				<g id="&lt;Group&gt;">
				</g>
				<g id="&lt;Group&gt;">
				</g>
				<g id="&lt;Group&gt;">
				</g>
				<g id="&lt;Group&gt;">
				</g>
				<g id="&lt;Group&gt;">
				</g>
				<g id="&lt;Group&gt;">
				</g>
				<g id="&lt;Group&gt;">
				</g>
				<g id="&lt;Group&gt;">
				</g>
				<g id="&lt;Group&gt;">
				</g>
				<g id="&lt;Group&gt;">
				</g>
				<g id="&lt;Group&gt;">
				</g>
				<g id="&lt;Group&gt;">
				</g>
			</g>
			<g id="&lt;Group&gt;">
				<g id="&lt;Group&gt;">
				</g>
				<g id="&lt;Group&gt;">
				</g>
				<g id="&lt;Group&gt;">
				</g>
				<g id="&lt;Group&gt;">
				</g>
				<g id="&lt;Group&gt;">
				</g>
				<g id="&lt;Group&gt;">
				</g>
				<g id="&lt;Group&gt;">
				</g>
				<g id="&lt;Group&gt;">
				</g>
				<g id="&lt;Group&gt;">
				</g>
				<g id="&lt;Group&gt;">
				</g>
				<g id="&lt;Group&gt;">
				</g>
				<g id="&lt;Group&gt;">
				</g>
				<g id="&lt;Group&gt;">
				</g>
				<g id="&lt;Group&gt;">
				</g>
				<g id="&lt;Group&gt;">
				</g>
				<g id="&lt;Group&gt;">
				</g>
				<g id="&lt;Group&gt;">
				</g>
				<g id="&lt;Group&gt;">
				</g>
				<g id="&lt;Group&gt;">
				</g>
				<g id="&lt;Group&gt;">
				</g>
				<g id="&lt;Group&gt;">
				</g>
			</g>
			<g id="&lt;Group&gt;">
				<g id="&lt;Group&gt;">
					<g id="&lt;Group&gt;">
					</g>
					<g id="&lt;Group&gt;">
					</g>
					<g id="&lt;Group&gt;">
					</g>
					<g id="&lt;Group&gt;">
					</g>
					<g id="&lt;Group&gt;">
					</g>
					<g id="&lt;Group&gt;">
					</g>
					<g id="&lt;Group&gt;">
					</g>
					<g id="&lt;Group&gt;">
					</g>
					<g id="&lt;Group&gt;">
					</g>
					<g id="&lt;Group&gt;">
					</g>
					<g id="&lt;Group&gt;">
					</g>
					<g id="&lt;Group&gt;">
					</g>
					<g id="&lt;Group&gt;">
					</g>
					<g id="&lt;Group&gt;">
					</g>
					<g id="&lt;Group&gt;">
					</g>
					<g id="&lt;Group&gt;">
					</g>
					<g id="&lt;Group&gt;">
					</g>
					<g id="&lt;Group&gt;">
					</g>
					<g id="&lt;Group&gt;">
					</g>
					<g id="&lt;Group&gt;">
					</g>
					<g id="&lt;Group&gt;">
					</g>
				</g>
				<g id="&lt;Group&gt;">
					<g id="&lt;Group&gt;">
					</g>
					<g id="&lt;Group&gt;">
					</g>
					<g id="&lt;Group&gt;">
					</g>
					<g id="&lt;Group&gt;">
					</g>
					<g id="&lt;Group&gt;">
					</g>
					<g id="&lt;Group&gt;">
					</g>
					<g id="&lt;Group&gt;">
					</g>
				</g>
			</g>
			<g id="&lt;Group&gt;">
				<g id="&lt;Group&gt;">
					<g id="&lt;Group&gt;">
					</g>
					<g id="&lt;Group&gt;">
					</g>
					<g id="&lt;Group&gt;">
					</g>
					<g id="&lt;Group&gt;">
					</g>
					<g id="&lt;Group&gt;">
					</g>
					<g id="&lt;Group&gt;">
					</g>
					<g id="&lt;Group&gt;">
					</g>
					<g id="&lt;Group&gt;">
					</g>
					<g id="&lt;Group&gt;">
					</g>
					<g id="&lt;Group&gt;">
					</g>
					<g id="&lt;Group&gt;">
					</g>
					<g id="&lt;Group&gt;">
					</g>
					<g id="&lt;Group&gt;">
					</g>
					<g id="&lt;Group&gt;">
					</g>
					<g id="&lt;Group&gt;">
					</g>
					<g id="&lt;Group&gt;">
					</g>
					<g id="&lt;Group&gt;">
					</g>
					<g id="&lt;Group&gt;">
					</g>
					<g id="&lt;Group&gt;">
					</g>
					<g id="&lt;Group&gt;">
					</g>
					<g id="&lt;Group&gt;">
					</g>
				</g>
				<g id="&lt;Group&gt;">
					<g id="&lt;Group&gt;">
					</g>
					<g id="&lt;Group&gt;">
					</g>
					<g id="&lt;Group&gt;">
					</g>
					<g id="&lt;Group&gt;">
					</g>
					<g id="&lt;Group&gt;">
					</g>
					<g id="&lt;Group&gt;">
					</g>
					<g id="&lt;Group&gt;">
					</g>
				</g>
			</g>
		</g>
		<g id="&lt;Group&gt;">
			<g id="&lt;Group&gt;">
				<path id="&lt;Path&gt;" fill-rule="evenodd" class="s0" d="m477.3 598.8h-454.6c-12.5 0-22.7-10.2-22.7-22.7v-651.4c0-12.5 10.2-22.7 22.7-22.7h454.6c12.5 0 22.7 10.2 22.7 22.7v651.4c0 12.5-10.2 22.7-22.7 22.7z"/>
				<path id="&lt;Path&gt;" fill-rule="evenodd" class="s1" d="m22.3 591.9c-8.6 0-15.8-7.1-15.8-15.8v-651.4c0-8.8 7.2-15.9 15.8-15.9h454.7c8.6 0 15.8 7.1 15.8 15.9v651.4c0 8.7-7.2 15.8-15.8 15.8z"/>
				<g id="&lt;Group&gt;">
					<path id="&lt;Compound Path&gt;" fill-rule="evenodd" class="s2" d="m465.9 576.3h-432.5c-6.2 0-11.4-5-11.4-11.3v-629.3c0-6.2 5.2-11.3 11.4-11.3h432.5c6.2 0 11.4 5.1 11.4 11.3v629.3c0 6.3-5.2 11.3-11.4 11.3zm-432.5-648.4c-4.4 0-7.9 3.5-7.9 7.8v629.3c0 4.4 3.5 7.8 7.9 7.8h432.5c4.4 0 7.9-3.4 7.9-7.8v-629.3c0-4.3-3.5-7.8-7.9-7.8z"/>
				</g>
				<path id="&lt;Path&gt;" fill-rule="evenodd" class="s2" d="m33.4 567.7c-1.5 0-2.7-1.1-2.7-2.7v-629.3c0-1.5 1.2-2.6 2.7-2.6h432.5c1.5 0 2.7 1.1 2.7 2.6v629.3c0 1.6-1.2 2.7-2.7 2.7z"/>
				<path id="&lt;Path&gt;" fill-rule="evenodd" class="s3" d="m465.2-63.6v627.9h-431.1v-627.9z"/>
				<path id="&lt;Path&gt;" fill-rule="evenodd" class="s3" d="m451.4-49.8v600.4h-403.5v-600.4z"/>
				<path id="&lt;Path&gt;" fill-rule="evenodd" class="s1" d="m448-46.3v593.4h-396.7v-593.4z"/>
				<path id="&lt;Path&gt;" fill-rule="evenodd" class="s2" d="m441.1-38.9v579.6h-382.9v-579.6z"/>
			</g>
			<path id="&lt;Path&gt;" fill-rule="evenodd" class="s1" d="m172.2 57.7l-18.2 18.2-18.3-18.2 18.3-18.3z"/>
			<path id="&lt;Path&gt;" fill-rule="evenodd" class="s1" d="m267.8 57.7l-18.1 18.2-18.2-18.2 18.2-18.3z"/>
			<path id="&lt;Path&gt;" fill-rule="evenodd" class="s1" d="m363.6 57.7l-18.3 18.2-18.1-18.2 18.1-18.3z"/>
			<g id="&lt;Group&gt;">
				<path id="&lt;Path&gt;" fill-rule="evenodd" class="s1" d="m154-20.7l18.2-18.2h-36.5z"/>
				<path id="&lt;Path&gt;" fill-rule="evenodd" class="s1" d="m249.7-20.7l18.1-18.2h-36.3z"/>
				<path id="&lt;Path&gt;" fill-rule="evenodd" class="s1" d="m327.2-38.9l18.1 18.2 18.3-18.2z"/>
			</g>
			<path id="&lt;Path&gt;" fill-rule="evenodd" class="s1" d="m172.2 154.2l-18.2 18.3-18.3-18.3 18.3-18.1z"/>
			<path id="&lt;Path&gt;" fill-rule="evenodd" class="s1" d="m267.8 154.2l-18.1 18.3-18.2-18.3 18.2-18.1z"/>
			<path id="&lt;Path&gt;" fill-rule="evenodd" class="s1" d="m363.6 154.2l-18.3 18.3-18.1-18.3 18.1-18.1z"/>
			<path id="&lt;Path&gt;" fill-rule="evenodd" class="s1" d="m172.2 250.9l-18.2 18.2-18.3-18.2 18.3-18.2z"/>
			<path id="&lt;Path&gt;" fill-rule="evenodd" class="s1" d="m267.8 250.9l-18.1 18.2-18.2-18.2 18.2-18.2z"/>
			<path id="&lt;Path&gt;" fill-rule="evenodd" class="s1" d="m363.6 250.9l-18.3 18.2-18.1-18.2 18.1-18.2z"/>
			<path id="&lt;Path&gt;" fill-rule="evenodd" class="s1" d="m172.2 347.5l-18.2 18.3-18.3-18.3 18.3-18.2z"/>
			<path id="&lt;Path&gt;" fill-rule="evenodd" class="s1" d="m267.8 347.5l-18.1 18.3-18.2-18.3 18.2-18.2z"/>
			<path id="&lt;Path&gt;" fill-rule="evenodd" class="s1" d="m363.6 347.5l-18.3 18.3-18.1-18.3 18.1-18.2z"/>
			<path id="&lt;Path&gt;" fill-rule="evenodd" class="s1" d="m172.2 444.1l-18.2 18.2-18.3-18.2 18.3-18.3z"/>
			<path id="&lt;Path&gt;" fill-rule="evenodd" class="s1" d="m267.8 444.1l-18.1 18.2-18.2-18.2 18.2-18.3z"/>
			<path id="&lt;Path&gt;" fill-rule="evenodd" class="s1" d="m363.6 444.1l-18.3 18.2-18.1-18.2 18.1-18.3z"/>
			<g id="&lt;Group&gt;">
				<path id="&lt;Path&gt;" fill-rule="evenodd" class="s1" d="m135.7 540.7h36.5l-18.2-18.3z"/>
				<path id="&lt;Path&gt;" fill-rule="evenodd" class="s1" d="m231.5 540.7h36.3l-18.1-18.3z"/>
				<path id="&lt;Path&gt;" fill-rule="evenodd" class="s1" d="m345.3 522.4l-18.1 18.3h36.4z"/>
			</g>
			<g id="&lt;Group&gt;">
				<path id="&lt;Path&gt;" fill-rule="evenodd" class="s1" d="m441.1 462.3v-36.5l-18.3 18.3z"/>
				<path id="&lt;Path&gt;" fill-rule="evenodd" class="s1" d="m441.1 365.8v-36.5l-18.3 18.2z"/>
				<path id="&lt;Path&gt;" fill-rule="evenodd" class="s1" d="m441.1 269.1v-36.4l-18.3 18.2z"/>
				<path id="&lt;Path&gt;" fill-rule="evenodd" class="s1" d="m441.1 172.5v-36.4l-18.3 18.1z"/>
				<path id="&lt;Path&gt;" fill-rule="evenodd" class="s1" d="m441.1 76.7v-36.3l-18.3 18.2z"/>
				<path id="&lt;Path&gt;" fill-rule="evenodd" class="s1" d="m420.2-39.9l23.6 23.7v-23.7z"/>
				<path id="&lt;Path&gt;" fill-rule="evenodd" class="s1" d="m445.7 544.4v-27.4l-27.5 27.4z"/>
			</g>
			<g id="&lt;Group&gt;">
				<path id="&lt;Path&gt;" fill-rule="evenodd" class="s1" d="m58.2 462.3v-36.5l18.3 18.3z"/>
				<path id="&lt;Path&gt;" fill-rule="evenodd" class="s1" d="m58.2 366.6v-36.5l18.3 18.2z"/>
				<path id="&lt;Path&gt;" fill-rule="evenodd" class="s1" d="m58.2 269.1v-36.4l18.3 18.2z"/>
				<path id="&lt;Path&gt;" fill-rule="evenodd" class="s1" d="m58.2 172.5v-36.4l18.3 18.1z"/>
				<path id="&lt;Path&gt;" fill-rule="evenodd" class="s1" d="m58.2 76.7v-36.3l18.3 18.2z"/>
				<path id="&lt;Path&gt;" fill-rule="evenodd" class="s1" d="m78.7-39.5l-22.8 22.9v-22.9z"/>
				<path id="&lt;Path&gt;" fill-rule="evenodd" class="s1" d="m56.2 541.8v-22.3l22.3 22.3z"/>
			</g>
			<path id="&lt;Path&gt;" fill-rule="evenodd" class="s4" d="m106.3 48.2l-39-39.2 38.5-38.3 39 39z"/>
			<path id="&lt;Path&gt;" fill-rule="evenodd" class="s4" d="m202.1 48.2l-39.1-39.2 38.5-38.3 39 39z"/>
			<path id="&lt;Path&gt;" fill-rule="evenodd" class="s4" d="m297.8 48.2l-39-39.2 38.4-38.3 39.1 39z"/>
			<path id="&lt;Path&gt;" fill-rule="evenodd" class="s4" d="m393.5 48.2l-39-39.2 38.5-38.3 39 39z"/>
			<path id="&lt;Path&gt;" fill-rule="evenodd" class="s4" d="m67.3 106.3l39-39 38.5 38.4-39 39.1z"/>
			<path id="&lt;Path&gt;" fill-rule="evenodd" class="s4" d="m163 106.3l39.1-39 38.4 38.4-39 39.1z"/>
			<path id="&lt;Path&gt;" fill-rule="evenodd" class="s4" d="m258.8 106.3l39-39 38.5 38.4-39.1 39.1z"/>
			<path id="&lt;Path&gt;" fill-rule="evenodd" class="s4" d="m354.5 106.3l39-39 38.5 38.4-39 39.1z"/>
			<path id="&lt;Path&gt;" fill-rule="evenodd" class="s4" d="m67.3 202.9l39-39.1 38.5 38.5-39 39z"/>
			<path id="&lt;Path&gt;" fill-rule="evenodd" class="s4" d="m163 202.9l39.1-39.1 38.4 38.5-39 39z"/>
			<path id="&lt;Path&gt;" fill-rule="evenodd" class="s4" d="m258.8 202.9l39-39.1 38.5 38.5-39.1 39z"/>
			<path id="&lt;Path&gt;" fill-rule="evenodd" class="s4" d="m354.5 202.9l39-39.1 38.5 38.5-39 39z"/>
			<path id="&lt;Path&gt;" fill-rule="evenodd" class="s4" d="m67.3 299.4l39-39 38.5 38.5-39 39z"/>
			<path id="&lt;Path&gt;" fill-rule="evenodd" class="s4" d="m163 299.4l39.1-39 38.4 38.5-39 39z"/>
			<path id="&lt;Path&gt;" fill-rule="evenodd" class="s4" d="m258.8 299.4l39-39 38.5 38.5-39.1 39z"/>
			<path id="&lt;Path&gt;" fill-rule="evenodd" class="s4" d="m354.5 299.4l39-39 38.5 38.5-39 39z"/>
			<path id="&lt;Path&gt;" fill-rule="evenodd" class="s4" d="m67.3 396.1l39-39.1 38.5 38.5-39 39z"/>
			<path id="&lt;Path&gt;" fill-rule="evenodd" class="s4" d="m163 396.1l39.1-39.1 38.4 38.5-39 39z"/>
			<path id="&lt;Path&gt;" fill-rule="evenodd" class="s4" d="m258.8 396.1l39-39.1 38.5 38.5-39.1 39z"/>
			<path id="&lt;Path&gt;" fill-rule="evenodd" class="s4" d="m354.5 396.1l39-39.1 38.5 38.5-39 39z"/>
			<path id="&lt;Path&gt;" fill-rule="evenodd" class="s4" d="m67.3 492.7l39-39.1 38.5 38.4-39 39.2z"/>
			<path id="&lt;Path&gt;" fill-rule="evenodd" class="s4" d="m163 492.7l39.1-39.1 38.4 38.4-39 39.2z"/>
			<path id="&lt;Path&gt;" fill-rule="evenodd" class="s4" d="m258.8 492.7l39-39.1 38.5 38.4-39.1 39.2z"/>
			<path id="&lt;Path&gt;" fill-rule="evenodd" class="s4" d="m354.5 492.7l39-39.1 38.5 38.4-39 39.2z"/>
			<path id="&lt;Path&gt;" fill-rule="evenodd" class="s1" d="m106.1 20.6c-6.2 0-11.2-5-11.2-11.2 0-6.2 5-11.2 11.2-11.2 6.2 0 11.2 5 11.2 11.2 0 6.2-5 11.2-11.2 11.2z"/>
			<path id="&lt;Path&gt;" fill-rule="evenodd" class="s1" d="m106.1 20.6c-6.2 0-11.2-5-11.2-11.2 0-6.2 5-11.2 11.2-11.2 6.2 0 11.2 5 11.2 11.2 0 6.2-5 11.2-11.2 11.2z"/>
			<g id="&lt;Group&gt;">
				<path id="&lt;Path&gt;" fill-rule="evenodd" class="s1" d="m106.1 20.6c-6.2 0-11.2-5-11.2-11.2 0-6.2 5-11.2 11.2-11.2 6.2 0 11.2 5 11.2 11.2 0 6.2-5 11.2-11.2 11.2z"/>
				<path id="&lt;Path&gt;" fill-rule="evenodd" class="s1" d="m113.9-6.3l-8-7.9-8.5 8.3c2.7-1.4 5.6-2.4 8.6-2.4 3 0 5.5 0.9 7.9 2z"/>
				<path id="&lt;Path&gt;" fill-rule="evenodd" class="s1" d="m123.7 9.4c0 3.1-0.9 6-2.3 8.7l8.3-8.5-7.9-8c1.1 2.4 1.9 4.9 1.9 7.8z"/>
				<path id="&lt;Path&gt;" fill-rule="evenodd" class="s1" d="m82.4 9.2l8 8c-1.2-2.3-1.9-5-1.9-7.8 0-3.2 0.8-6.1 2.4-8.6z"/>
				<path id="&lt;Path&gt;" fill-rule="evenodd" class="s1" d="m98.2 25l8.1 8.1 8.4-8.5c-2.5 1.6-5.4 2.4-8.7 2.4-2.7 0-5.4-0.7-7.8-2z"/>
				<path id="&lt;Path&gt;" fill-rule="evenodd" class="s1" d="m201.8 20.6c-6.2 0-11.2-5-11.2-11.2 0-6.2 5-11.2 11.2-11.2 6.1 0 11.1 5 11.1 11.2 0 6.2-5 11.2-11.1 11.2z"/>
				<path id="&lt;Path&gt;" fill-rule="evenodd" class="s1" d="m209.6-6.3l-8-7.9-8.5 8.3c2.6-1.4 5.5-2.4 8.7-2.4 2.8 0 5.4 0.9 7.8 2z"/>
				<path id="&lt;Path&gt;" fill-rule="evenodd" class="s1" d="m219.3 9.4c0 3.1-0.8 6-2.3 8.7l8.5-8.5-8-8c1.1 2.4 1.8 4.9 1.8 7.8z"/>
				<path id="&lt;Path&gt;" fill-rule="evenodd" class="s1" d="m178.1 9.2l8.1 8c-1.3-2.3-2-5-2-7.8 0-3.2 0.9-6.1 2.4-8.6z"/>
				<path id="&lt;Path&gt;" fill-rule="evenodd" class="s1" d="m194 25l7.9 8.1 8.5-8.5c-2.5 1.6-5.4 2.4-8.6 2.4-2.8 0-5.5-0.7-7.8-2z"/>
				<path id="&lt;Path&gt;" fill-rule="evenodd" class="s1" d="m297.5 20.6c-6.1 0-11.1-5-11.1-11.2 0-6.2 5-11.2 11.1-11.2 6.2 0 11.2 5 11.2 11.2 0 6.2-5 11.2-11.2 11.2z"/>
				<path id="&lt;Path&gt;" fill-rule="evenodd" class="s1" d="m305.3-6.3l-7.9-7.9-8.5 8.3c2.5-1.4 5.4-2.4 8.6-2.4 2.8 0 5.5 0.9 7.8 2z"/>
				<path id="&lt;Path&gt;" fill-rule="evenodd" class="s1" d="m315.1 9.4c0 3.1-0.9 6-2.4 8.7l8.5-8.5-7.9-8c1.1 2.4 1.8 4.9 1.8 7.8z"/>
				<path id="&lt;Path&gt;" fill-rule="evenodd" class="s1" d="m273.8 9.2l8 8c-1.1-2.3-1.8-5-1.8-7.8 0-3.2 0.8-6.1 2.3-8.6z"/>
				<path id="&lt;Path&gt;" fill-rule="evenodd" class="s1" d="m289.7 25l8 8.1 8.5-8.5c-2.5 1.6-5.5 2.4-8.7 2.4-2.8 0-5.4-0.7-7.8-2z"/>
				<path id="&lt;Path&gt;" fill-rule="evenodd" class="s1" d="m393.2 20.6c-6.2 0-11.2-5-11.2-11.2 0-6.2 5-11.2 11.2-11.2 6.2 0 11.2 5 11.2 11.2 0 6.2-5 11.2-11.2 11.2z"/>
				<path id="&lt;Path&gt;" fill-rule="evenodd" class="s1" d="m401.1-6.3l-8.1-7.9-8.4 8.3c2.5-1.4 5.5-2.4 8.7-2.4 2.7 0 5.4 0.9 7.8 2z"/>
				<path id="&lt;Path&gt;" fill-rule="evenodd" class="s1" d="m416.9 9.6l-8-8c1.2 2.4 1.9 4.9 1.9 7.8 0 3.1-0.8 6-2.4 8.7z"/>
				<path id="&lt;Path&gt;" fill-rule="evenodd" class="s1" d="m369.6 9.2l7.9 8c-1.1-2.3-1.8-5-1.8-7.8 0-3.2 0.8-6.1 2.2-8.6z"/>
				<path id="&lt;Path&gt;" fill-rule="evenodd" class="s1" d="m385.5 25l7.9 8.1 8.5-8.5c-2.5 1.6-5.4 2.4-8.6 2.4-2.8 0-5.5-0.7-7.8-2z"/>
			</g>
			<g id="&lt;Group&gt;">
				<path id="&lt;Path&gt;" fill-rule="evenodd" class="s1" d="m106.1 117.2c-6.2 0-11.2-5.1-11.2-11.3 0-6.2 5-11.2 11.2-11.2 6.2 0 11.2 5 11.2 11.2 0 6.2-5 11.3-11.2 11.3z"/>
				<path id="&lt;Path&gt;" fill-rule="evenodd" class="s1" d="m113.9 90.3l-8-8-8.5 8.4c2.7-1.4 5.6-2.2 8.6-2.2 3 0 5.5 0.7 7.9 1.8z"/>
				<path id="&lt;Path&gt;" fill-rule="evenodd" class="s1" d="m123.7 106c0 3.2-0.9 6.1-2.3 8.7l8.3-8.5-7.9-8c1.1 2.4 1.9 5 1.9 7.8z"/>
				<path id="&lt;Path&gt;" fill-rule="evenodd" class="s1" d="m82.4 105.7l8 8.1c-1.2-2.4-1.9-5-1.9-7.8 0-3.2 0.8-6.1 2.4-8.6z"/>
				<path id="&lt;Path&gt;" fill-rule="evenodd" class="s1" d="m98.2 121.6l8.1 8.1 8.4-8.5c-2.5 1.5-5.4 2.4-8.7 2.4-2.7 0-5.4-0.7-7.8-2z"/>
				<path id="&lt;Path&gt;" fill-rule="evenodd" class="s1" d="m201.8 117.2c-6.2 0-11.2-5.1-11.2-11.3 0-6.2 5-11.2 11.2-11.2 6.1 0 11.1 5 11.1 11.2 0 6.2-5 11.3-11.1 11.3z"/>
				<path id="&lt;Path&gt;" fill-rule="evenodd" class="s1" d="m209.6 90.3l-8-8-8.5 8.4c2.6-1.4 5.5-2.2 8.7-2.2 2.8 0 5.4 0.7 7.8 1.8z"/>
				<path id="&lt;Path&gt;" fill-rule="evenodd" class="s1" d="m219.3 106c0 3.2-0.8 6.1-2.3 8.7l8.5-8.5-8-8c1.1 2.4 1.8 5 1.8 7.8z"/>
				<path id="&lt;Path&gt;" fill-rule="evenodd" class="s1" d="m178.1 105.7l8.1 8.1c-1.3-2.4-2-5-2-7.8 0-3.2 0.9-6.1 2.4-8.6z"/>
				<path id="&lt;Path&gt;" fill-rule="evenodd" class="s1" d="m194 121.6l7.9 8.1 8.5-8.5c-2.5 1.5-5.4 2.4-8.6 2.4-2.8 0-5.5-0.7-7.8-2z"/>
				<path id="&lt;Path&gt;" fill-rule="evenodd" class="s1" d="m297.5 117.2c-6.1 0-11.1-5.1-11.1-11.3 0-6.2 5-11.2 11.1-11.2 6.2 0 11.2 5 11.2 11.2 0 6.2-5 11.3-11.2 11.3z"/>
				<path id="&lt;Path&gt;" fill-rule="evenodd" class="s1" d="m305.3 90.3l-7.9-8-8.5 8.4c2.5-1.4 5.4-2.2 8.6-2.2 2.8 0 5.5 0.7 7.8 1.8z"/>
				<path id="&lt;Path&gt;" fill-rule="evenodd" class="s1" d="m315.1 106c0 3.2-0.9 6.1-2.4 8.7l8.5-8.5-7.9-8c1.1 2.4 1.8 5 1.8 7.8z"/>
				<path id="&lt;Path&gt;" fill-rule="evenodd" class="s1" d="m273.8 105.7l8 8.1c-1.1-2.4-1.8-5-1.8-7.8 0-3.2 0.8-6.1 2.3-8.6z"/>
				<path id="&lt;Path&gt;" fill-rule="evenodd" class="s1" d="m289.7 121.6l8 8.1 8.5-8.5c-2.5 1.5-5.5 2.4-8.7 2.4-2.8 0-5.4-0.7-7.8-2z"/>
				<path id="&lt;Path&gt;" fill-rule="evenodd" class="s1" d="m393.2 117.2c-6.2 0-11.2-5.1-11.2-11.3 0-6.2 5-11.2 11.2-11.2 6.2 0 11.2 5 11.2 11.2 0 6.2-5 11.3-11.2 11.3z"/>
				<path id="&lt;Path&gt;" fill-rule="evenodd" class="s1" d="m401.1 90.3l-8.1-8-8.4 8.4c2.5-1.4 5.5-2.2 8.7-2.2 2.7 0 5.4 0.7 7.8 1.8z"/>
				<path id="&lt;Path&gt;" fill-rule="evenodd" class="s1" d="m416.9 106.2l-8-8c1.2 2.4 1.9 5 1.9 7.8 0 3.2-0.8 6.1-2.4 8.7z"/>
				<path id="&lt;Path&gt;" fill-rule="evenodd" class="s1" d="m369.6 105.7l7.9 8.1c-1.1-2.4-1.8-5-1.8-7.8 0-3.2 0.8-6.1 2.2-8.6z"/>
				<path id="&lt;Path&gt;" fill-rule="evenodd" class="s1" d="m385.5 121.6l7.9 8.1 8.5-8.5c-2.5 1.5-5.4 2.4-8.6 2.4-2.8 0-5.5-0.7-7.8-2z"/>
			</g>
			<g id="&lt;Group&gt;">
				<path id="&lt;Path&gt;" fill-rule="evenodd" class="s1" d="m106.1 213.7c-6.2 0-11.2-4.9-11.2-11.1 0-6.2 5-11.2 11.2-11.2 6.2 0 11.2 5 11.2 11.2 0 6.2-5 11.1-11.2 11.1z"/>
				<path id="&lt;Path&gt;" fill-rule="evenodd" class="s1" d="m113.9 186.8l-8-7.9-8.5 8.5c2.7-1.5 5.6-2.4 8.6-2.4 3 0 5.5 0.7 7.9 1.8z"/>
				<path id="&lt;Path&gt;" fill-rule="evenodd" class="s1" d="m123.7 202.6c0 3.2-0.9 6.1-2.3 8.6l8.3-8.5-7.9-7.9c1.1 2.4 1.9 5 1.9 7.8z"/>
				<path id="&lt;Path&gt;" fill-rule="evenodd" class="s1" d="m82.4 202.4l8 8c-1.2-2.4-1.9-5-1.9-7.8 0-3.2 0.8-6.1 2.4-8.7z"/>
				<path id="&lt;Path&gt;" fill-rule="evenodd" class="s1" d="m98.2 218.3l8.1 8 8.4-8.5c-2.5 1.5-5.4 2.3-8.7 2.3-2.7 0-5.4-0.7-7.8-1.8z"/>
				<path id="&lt;Path&gt;" fill-rule="evenodd" class="s1" d="m201.8 213.7c-6.2 0-11.2-4.9-11.2-11.1 0-6.2 5-11.2 11.2-11.2 6.1 0 11.1 5 11.1 11.2 0 6.2-5 11.1-11.1 11.1z"/>
				<path id="&lt;Path&gt;" fill-rule="evenodd" class="s1" d="m209.6 186.8l-8-7.9-8.5 8.5c2.6-1.5 5.5-2.4 8.7-2.4 2.8 0 5.4 0.7 7.8 1.8z"/>
				<path id="&lt;Path&gt;" fill-rule="evenodd" class="s1" d="m219.3 202.6c0 3.2-0.8 6.1-2.3 8.6l8.5-8.5-8-7.9c1.1 2.4 1.8 5 1.8 7.8z"/>
				<path id="&lt;Path&gt;" fill-rule="evenodd" class="s1" d="m178.1 202.4l8.1 8c-1.3-2.4-2-5-2-7.8 0-3.2 0.9-6.1 2.4-8.7z"/>
				<path id="&lt;Path&gt;" fill-rule="evenodd" class="s1" d="m194 218.3l7.9 8 8.5-8.5c-2.5 1.5-5.4 2.3-8.6 2.3-2.8 0-5.5-0.7-7.8-1.8z"/>
				<path id="&lt;Path&gt;" fill-rule="evenodd" class="s1" d="m297.5 213.7c-6.1 0-11.1-4.9-11.1-11.1 0-6.2 5-11.2 11.1-11.2 6.2 0 11.2 5 11.2 11.2 0 6.2-5 11.1-11.2 11.1z"/>
				<path id="&lt;Path&gt;" fill-rule="evenodd" class="s1" d="m305.3 186.8l-7.9-7.9-8.5 8.5c2.5-1.5 5.4-2.4 8.6-2.4 2.8 0 5.5 0.7 7.8 1.8z"/>
				<path id="&lt;Path&gt;" fill-rule="evenodd" class="s1" d="m315.1 202.6c0 3.2-0.9 6.1-2.4 8.6l8.5-8.5-7.9-7.9c1.1 2.4 1.8 5 1.8 7.8z"/>
				<path id="&lt;Path&gt;" fill-rule="evenodd" class="s1" d="m273.8 202.4l8 8c-1.1-2.4-1.8-5-1.8-7.8 0-3.2 0.8-6.1 2.3-8.7z"/>
				<path id="&lt;Path&gt;" fill-rule="evenodd" class="s1" d="m289.7 218.3l8 8 8.5-8.5c-2.5 1.5-5.5 2.3-8.7 2.3-2.8 0-5.4-0.7-7.8-1.8z"/>
				<path id="&lt;Path&gt;" fill-rule="evenodd" class="s1" d="m393.2 213.7c-6.2 0-11.2-4.9-11.2-11.1 0-6.2 5-11.2 11.2-11.2 6.2 0 11.2 5 11.2 11.2 0 6.2-5 11.1-11.2 11.1z"/>
				<path id="&lt;Path&gt;" fill-rule="evenodd" class="s1" d="m401.1 186.8l-8.1-7.9-8.4 8.5c2.5-1.5 5.5-2.4 8.7-2.4 2.7 0 5.4 0.7 7.8 1.8z"/>
				<path id="&lt;Path&gt;" fill-rule="evenodd" class="s1" d="m416.9 202.7l-8-7.9c1.2 2.4 1.9 5 1.9 7.8 0 3.2-0.8 6.1-2.4 8.6z"/>
				<path id="&lt;Path&gt;" fill-rule="evenodd" class="s1" d="m369.6 202.4l7.9 8c-1.1-2.4-1.8-5-1.8-7.8 0-3.2 0.8-6.1 2.2-8.7z"/>
				<path id="&lt;Path&gt;" fill-rule="evenodd" class="s1" d="m385.5 218.3l7.9 8 8.5-8.5c-2.5 1.5-5.4 2.3-8.6 2.3-2.8 0-5.5-0.7-7.8-1.8z"/>
			</g>
			<g id="&lt;Group&gt;">
				<path id="&lt;Path&gt;" fill-rule="evenodd" class="s1" d="m106.1 310.4c-6.2 0-11.2-5-11.2-11.2 0-6.2 5-11.2 11.2-11.2 6.2 0 11.2 5 11.2 11.2 0 6.2-5 11.2-11.2 11.2z"/>
				<path id="&lt;Path&gt;" fill-rule="evenodd" class="s1" d="m113.9 283.5l-8-8-8.5 8.5c2.7-1.6 5.6-2.4 8.6-2.4 3 0 5.5 0.7 7.9 1.9z"/>
				<path id="&lt;Path&gt;" fill-rule="evenodd" class="s1" d="m123.7 299.2c0 3.2-0.9 6.1-2.3 8.6l8.3-8.4-7.9-8c1.1 2.3 1.9 5 1.9 7.8z"/>
				<path id="&lt;Path&gt;" fill-rule="evenodd" class="s1" d="m82.4 299l8 8c-1.2-2.4-1.9-5.1-1.9-7.8 0-3.2 0.8-6.2 2.4-8.7z"/>
				<path id="&lt;Path&gt;" fill-rule="evenodd" class="s1" d="m98.2 314.9l8.1 7.9 8.4-8.3c-2.5 1.4-5.4 2.4-8.7 2.4-2.7 0-5.4-0.9-7.8-2z"/>
				<path id="&lt;Path&gt;" fill-rule="evenodd" class="s1" d="m201.8 310.4c-6.2 0-11.2-5-11.2-11.2 0-6.2 5-11.2 11.2-11.2 6.1 0 11.1 5 11.1 11.2 0 6.2-5 11.2-11.1 11.2z"/>
				<path id="&lt;Path&gt;" fill-rule="evenodd" class="s1" d="m209.6 283.5l-8-8-8.5 8.5c2.6-1.6 5.5-2.4 8.7-2.4 2.8 0 5.4 0.7 7.8 1.9z"/>
				<path id="&lt;Path&gt;" fill-rule="evenodd" class="s1" d="m219.3 299.2c0 3.2-0.8 6.1-2.3 8.6l8.5-8.4-8-8c1.1 2.3 1.8 5 1.8 7.8z"/>
				<path id="&lt;Path&gt;" fill-rule="evenodd" class="s1" d="m178.1 299l8.1 8c-1.3-2.4-2-5.1-2-7.8 0-3.2 0.9-6.2 2.4-8.7z"/>
				<path id="&lt;Path&gt;" fill-rule="evenodd" class="s1" d="m194 314.9l7.9 7.9 8.5-8.3c-2.5 1.4-5.4 2.4-8.6 2.4-2.8 0-5.5-0.9-7.8-2z"/>
				<path id="&lt;Path&gt;" fill-rule="evenodd" class="s1" d="m297.5 310.4c-6.1 0-11.1-5-11.1-11.2 0-6.2 5-11.2 11.1-11.2 6.2 0 11.2 5 11.2 11.2 0 6.2-5 11.2-11.2 11.2z"/>
				<path id="&lt;Path&gt;" fill-rule="evenodd" class="s1" d="m305.3 283.5l-7.9-8-8.5 8.5c2.5-1.6 5.4-2.4 8.6-2.4 2.8 0 5.5 0.7 7.8 1.9z"/>
				<path id="&lt;Path&gt;" fill-rule="evenodd" class="s1" d="m315.1 299.2c0 3.2-0.9 6.1-2.4 8.6l8.5-8.4-7.9-8c1.1 2.3 1.8 5 1.8 7.8z"/>
				<path id="&lt;Path&gt;" fill-rule="evenodd" class="s1" d="m273.8 299l8 8c-1.1-2.4-1.8-5.1-1.8-7.8 0-3.2 0.8-6.2 2.3-8.7z"/>
				<path id="&lt;Path&gt;" fill-rule="evenodd" class="s1" d="m289.7 314.9l8 7.9 8.5-8.3c-2.5 1.4-5.5 2.4-8.7 2.4-2.8 0-5.4-0.9-7.8-2z"/>
				<path id="&lt;Path&gt;" fill-rule="evenodd" class="s1" d="m393.2 310.4c-6.2 0-11.2-5-11.2-11.2 0-6.2 5-11.2 11.2-11.2 6.2 0 11.2 5 11.2 11.2 0 6.2-5 11.2-11.2 11.2z"/>
				<path id="&lt;Path&gt;" fill-rule="evenodd" class="s1" d="m401.1 283.5l-8.1-8-8.4 8.5c2.5-1.6 5.5-2.4 8.7-2.4 2.7 0 5.4 0.7 7.8 1.9z"/>
				<path id="&lt;Path&gt;" fill-rule="evenodd" class="s1" d="m416.9 299.4l-8-8c1.2 2.3 1.9 5 1.9 7.8 0 3.2-0.8 6.1-2.4 8.6z"/>
				<path id="&lt;Path&gt;" fill-rule="evenodd" class="s1" d="m369.6 299l7.9 8c-1.1-2.4-1.8-5.1-1.8-7.8 0-3.2 0.8-6.2 2.2-8.7z"/>
				<path id="&lt;Path&gt;" fill-rule="evenodd" class="s1" d="m385.5 314.9l7.9 7.9 8.5-8.3c-2.5 1.4-5.4 2.4-8.6 2.4-2.8 0-5.5-0.9-7.8-2z"/>
			</g>
			<g id="&lt;Group&gt;">
				<path id="&lt;Path&gt;" fill-rule="evenodd" class="s1" d="m106.1 407c-6.2 0-11.2-5-11.2-11.2 0-6.2 5-11.2 11.2-11.2 6.2 0 11.2 5 11.2 11.2 0 6.2-5 11.2-11.2 11.2z"/>
				<path id="&lt;Path&gt;" fill-rule="evenodd" class="s1" d="m113.9 380.1l-8-8.1-8.5 8.5c2.7-1.4 5.6-2.3 8.6-2.3 3 0 5.5 0.7 7.9 1.9z"/>
				<path id="&lt;Path&gt;" fill-rule="evenodd" class="s1" d="m123.7 395.7c0 3.2-0.9 6.2-2.3 8.8l8.3-8.5-7.9-8.1c1.1 2.4 1.9 5 1.9 7.8z"/>
				<path id="&lt;Path&gt;" fill-rule="evenodd" class="s1" d="m82.4 395.6l8 8.1c-1.2-2.4-1.9-5-1.9-8 0-3 0.8-6 2.4-8.6z"/>
				<path id="&lt;Path&gt;" fill-rule="evenodd" class="s1" d="m98.2 411.5l8.1 8.1 8.4-8.5c-2.5 1.4-5.4 2.3-8.7 2.3-2.7 0-5.4-0.8-7.8-1.9z"/>
				<path id="&lt;Path&gt;" fill-rule="evenodd" class="s1" d="m201.8 407c-6.2 0-11.2-5-11.2-11.2 0-6.2 5-11.2 11.2-11.2 6.1 0 11.1 5 11.1 11.2 0 6.2-5 11.2-11.1 11.2z"/>
				<path id="&lt;Path&gt;" fill-rule="evenodd" class="s1" d="m209.6 380.1l-8-8.1-8.5 8.5c2.6-1.4 5.5-2.3 8.7-2.3 2.8 0 5.4 0.7 7.8 1.9z"/>
				<path id="&lt;Path&gt;" fill-rule="evenodd" class="s1" d="m219.3 395.7c0 3.2-0.8 6.2-2.3 8.8l8.5-8.5-8-8.1c1.1 2.4 1.8 5 1.8 7.8z"/>
				<path id="&lt;Path&gt;" fill-rule="evenodd" class="s1" d="m178.1 395.6l8.1 8.1c-1.3-2.4-2-5-2-8 0-3 0.9-6 2.4-8.6z"/>
				<path id="&lt;Path&gt;" fill-rule="evenodd" class="s1" d="m194 411.5l7.9 8.1 8.5-8.5c-2.5 1.4-5.4 2.3-8.6 2.3-2.8 0-5.5-0.8-7.8-1.9z"/>
				<path id="&lt;Path&gt;" fill-rule="evenodd" class="s1" d="m297.5 407c-6.1 0-11.1-5-11.1-11.2 0-6.2 5-11.2 11.1-11.2 6.2 0 11.2 5 11.2 11.2 0 6.2-5 11.2-11.2 11.2z"/>
				<path id="&lt;Path&gt;" fill-rule="evenodd" class="s1" d="m305.3 380.1l-7.9-8.1-8.5 8.5c2.5-1.4 5.4-2.3 8.6-2.3 2.8 0 5.5 0.7 7.8 1.9z"/>
				<path id="&lt;Path&gt;" fill-rule="evenodd" class="s1" d="m315.1 395.7c0 3.2-0.9 6.2-2.4 8.8l8.5-8.5-7.9-8.1c1.1 2.4 1.8 5 1.8 7.8z"/>
				<path id="&lt;Path&gt;" fill-rule="evenodd" class="s1" d="m273.8 395.6l8 8.1c-1.1-2.4-1.8-5-1.8-8 0-3 0.8-6 2.3-8.6z"/>
				<path id="&lt;Path&gt;" fill-rule="evenodd" class="s1" d="m289.7 411.5l8 8.1 8.5-8.5c-2.5 1.4-5.5 2.3-8.7 2.3-2.8 0-5.4-0.8-7.8-1.9z"/>
				<path id="&lt;Path&gt;" fill-rule="evenodd" class="s1" d="m393.2 407c-6.2 0-11.2-5-11.2-11.2 0-6.2 5-11.2 11.2-11.2 6.2 0 11.2 5 11.2 11.2 0 6.2-5 11.2-11.2 11.2z"/>
				<path id="&lt;Path&gt;" fill-rule="evenodd" class="s1" d="m401.1 380.1l-8.1-8.1-8.4 8.5c2.5-1.4 5.5-2.3 8.7-2.3 2.7 0 5.4 0.7 7.8 1.9z"/>
				<path id="&lt;Path&gt;" fill-rule="evenodd" class="s1" d="m416.9 396l-8-8.1c1.2 2.4 1.9 5 1.9 7.8 0 3.2-0.8 6.2-2.4 8.8z"/>
				<path id="&lt;Path&gt;" fill-rule="evenodd" class="s1" d="m369.6 395.6l7.9 8.1c-1.1-2.4-1.8-5-1.8-8 0-3 0.8-6 2.2-8.6z"/>
				<path id="&lt;Path&gt;" fill-rule="evenodd" class="s1" d="m385.5 411.5l7.9 8.1 8.5-8.5c-2.5 1.4-5.4 2.3-8.6 2.3-2.8 0-5.5-0.8-7.8-1.9z"/>
			</g>
			<g id="&lt;Group&gt;">
				<path id="&lt;Path&gt;" fill-rule="evenodd" class="s1" d="m106.1 503.6c-6.2 0-11.2-5-11.2-11.2 0-6.2 5-11.2 11.2-11.2 6.2 0 11.2 5 11.2 11.2 0 6.2-5 11.2-11.2 11.2z"/>
				<path id="&lt;Path&gt;" fill-rule="evenodd" class="s1" d="m113.9 476.7l-8-8.1-8.5 8.5c2.7-1.4 5.6-2.4 8.6-2.4 3 0 5.5 0.7 7.9 2z"/>
				<path id="&lt;Path&gt;" fill-rule="evenodd" class="s1" d="m123.7 492.4c0 3.1-0.9 6-2.3 8.7l8.3-8.5-7.9-8.1c1.1 2.4 1.9 5 1.9 7.9z"/>
				<path id="&lt;Path&gt;" fill-rule="evenodd" class="s1" d="m82.4 492.2l8 8c-1.2-2.3-1.9-5-1.9-7.8 0-3.2 0.8-6.1 2.4-8.7z"/>
				<path id="&lt;Path&gt;" fill-rule="evenodd" class="s1" d="m98.2 508l8.1 8.1 8.4-8.5c-2.5 1.4-5.4 2.4-8.7 2.4-2.7 0-5.4-0.7-7.8-2z"/>
				<path id="&lt;Path&gt;" fill-rule="evenodd" class="s1" d="m201.8 503.6c-6.2 0-11.2-5-11.2-11.2 0-6.2 5-11.2 11.2-11.2 6.1 0 11.1 5 11.1 11.2 0 6.2-5 11.2-11.1 11.2z"/>
				<path id="&lt;Path&gt;" fill-rule="evenodd" class="s1" d="m209.6 476.7l-8-8.1-8.5 8.5c2.6-1.4 5.5-2.4 8.7-2.4 2.8 0 5.4 0.7 7.8 2z"/>
				<path id="&lt;Path&gt;" fill-rule="evenodd" class="s1" d="m219.3 492.4c0 3.1-0.8 6-2.3 8.7l8.5-8.5-8-8.1c1.1 2.4 1.8 5 1.8 7.9z"/>
				<path id="&lt;Path&gt;" fill-rule="evenodd" class="s1" d="m178.1 492.2l8.1 8c-1.3-2.3-2-5-2-7.8 0-3.2 0.9-6.1 2.4-8.7z"/>
				<path id="&lt;Path&gt;" fill-rule="evenodd" class="s1" d="m194 508l7.9 8.1 8.5-8.5c-2.5 1.4-5.4 2.4-8.6 2.4-2.8 0-5.5-0.7-7.8-2z"/>
				<path id="&lt;Path&gt;" fill-rule="evenodd" class="s1" d="m297.5 503.6c-6.1 0-11.1-5-11.1-11.2 0-6.2 5-11.2 11.1-11.2 6.2 0 11.2 5 11.2 11.2 0 6.2-5 11.2-11.2 11.2z"/>
				<path id="&lt;Path&gt;" fill-rule="evenodd" class="s1" d="m305.3 476.7l-7.9-8.1-8.5 8.5c2.5-1.4 5.4-2.4 8.6-2.4 2.8 0 5.5 0.7 7.8 2z"/>
				<path id="&lt;Path&gt;" fill-rule="evenodd" class="s1" d="m315.1 492.4c0 3.1-0.9 6-2.4 8.7l8.5-8.5-7.9-8.1c1.1 2.4 1.8 5 1.8 7.9z"/>
				<path id="&lt;Path&gt;" fill-rule="evenodd" class="s1" d="m273.8 492.2l8 8c-1.1-2.3-1.8-5-1.8-7.8 0-3.2 0.8-6.1 2.3-8.7z"/>
				<path id="&lt;Path&gt;" fill-rule="evenodd" class="s1" d="m289.7 508l8 8.1 8.5-8.5c-2.5 1.4-5.5 2.4-8.7 2.4-2.8 0-5.4-0.7-7.8-2z"/>
				<path id="&lt;Path&gt;" fill-rule="evenodd" class="s1" d="m393.2 503.6c-6.2 0-11.2-5-11.2-11.2 0-6.2 5-11.2 11.2-11.2 6.2 0 11.2 5 11.2 11.2 0 6.2-5 11.2-11.2 11.2z"/>
				<path id="&lt;Path&gt;" fill-rule="evenodd" class="s1" d="m401.1 476.7l-8.1-8.1-8.4 8.5c2.5-1.4 5.5-2.4 8.7-2.4 2.7 0 5.4 0.7 7.8 2z"/>
				<path id="&lt;Path&gt;" fill-rule="evenodd" class="s1" d="m416.9 492.6l-8-8.1c1.2 2.4 1.9 5 1.9 7.9 0 3.1-0.8 6-2.4 8.7z"/>
				<path id="&lt;Path&gt;" fill-rule="evenodd" class="s1" d="m369.6 492.2l7.9 8c-1.1-2.3-1.8-5-1.8-7.8 0-3.2 0.8-6.1 2.2-8.7z"/>
				<path id="&lt;Path&gt;" fill-rule="evenodd" class="s1" d="m385.5 508l7.9 8.1 8.5-8.5c-2.5 1.4-5.4 2.4-8.6 2.4-2.8 0-5.5-0.7-7.8-2z"/>
			</g>
		</g>
		<g id="&lt;Group&gt;">
			<g id="&lt;Group&gt;">
				<g id="&lt;Group&gt;">
				</g>
			</g>
			<g id="&lt;Group&gt;">
			</g>
			<g id="&lt;Clip Group&gt;">
				<g id="&lt;Group&gt;">
				</g>
			</g>
			<g id="&lt;Group&gt;">
			</g>
			<g id="&lt;Group&gt;">
			</g>
			<g id="&lt;Group&gt;">
			</g>
			<g id="&lt;Group&gt;">
			</g>
			<g id="&lt;Group&gt;">
			</g>
			<g id="&lt;Group&gt;">
			</g>
			<g id="&lt;Group&gt;">
			</g>
			<g id="&lt;Group&gt;">
			</g>
		</g>
		<path id="&lt;Path&gt;" fill-rule="evenodd" class="s4" d="m392.8 9v483.9h-286.8v-483.9z"/>
		<path id="&lt;Path&gt;" fill-rule="evenodd" class="s4" d="m297.5 105.6v289.7h-95.3v-289.7z"/>
		<path id="&lt;Path&gt;" fill-rule="evenodd" class="s4" d="m345.3 57.7v386.4h-191.3v-386.4z"/>
	</g>
</svg>