<svg version="1.2" xmlns="http://www.w3.org/2000/svg" viewBox="0 0 59 91" width="59" height="91">
	<title>cartes_interro copy-svg</title>
	<style>
		.s0 { fill: none } 
		.s1 { fill: none;stroke: #000000;stroke-width: .4 } 
	</style>
	<g id="layer1">
		<g id="g3985">
			<g id="g3966">
				<path id="path1141-1-9-2-0" class="s0" d="m53.1 90.1c-2.7 0-5-2.2-5-5 0-2.7 2.3-5 5-5 2.8 0 5 2.3 5 5 0 2.8-2.2 5-5 5z"/>
				<path id="path1141-5-6-85-6" class="s0" d="m5.1 90.1c-2.7 0-5-2.2-5-5 0-2.7 2.3-5 5-5 2.8 0 5 2.3 5 5 0 2.8-2.2 5-5 5z"/>
				<path id="rect111-6-1-2" class="s1" d="m5.1 0.1h48c2.8 0 5 2.3 5 5v80c0 2.8-2.2 5-5 5h-48c-2.7 0-5-2.2-5-5v-80c0-2.7 2.3-5 5-5z"/>
				<path id="rect111-3-5-8-1" class="s1" d="m10 4.1q0.1 0.2 0.1 0.3 0 0.1 0 0.3 0 0.1 0 0.3 0 0.1 0 0.2 0 1-0.3 1.9-0.4 1-1.1 1.7-0.7 0.7-1.6 1-1 0.4-2 0.4-0.1 0-0.2 0-0.1 0-0.3 0-0.1 0-0.2 0-0.1-0.1-0.3-0.1v70.1q0.1 0 0.3 0 0.1 0 0.2 0 0.1 0 0.2 0 0.1-0.1 0.2-0.1 1 0 1.9 0.4 1 0.4 1.7 1.1 0.7 0.7 1.1 1.6 0.3 1 0.3 1.9 0 0.2 0 0.3 0 0.1 0 0.2 0 0.2 0 0.3 0 0.1-0.1 0.2h38.4q0-0.1-0.1-0.2 0-0.2 0-0.3 0-0.1 0-0.2 0-0.2 0-0.3 0-1 0.4-1.9 0.3-0.9 1-1.6 0.7-0.7 1.7-1.1 0.9-0.4 1.9-0.4 0.1 0 0.2 0 0.1 0 0.3 0 0.1 0 0.2 0.1 0.1 0 0.2 0v-70.2q-0.1 0.1-0.2 0.1-0.1 0-0.3 0-0.1 0-0.2 0-0.2 0-0.3 0-1 0-1.9-0.3-0.9-0.4-1.6-1.1-0.7-0.7-1.1-1.7-0.4-0.9-0.4-1.9 0-0.1 0-0.2 0-0.1 0-0.3 0-0.1 0.1-0.2 0-0.1 0-0.3z"/>
				<path id="path1141-0-6-5-5" class="s0" d="m5.1 10.1c-2.7 0-5-2.2-5-5 0-2.7 2.3-5 5-5 2.8 0 5 2.3 5 5 0 2.8-2.2 5-5 5z"/>
				<path id="path1141-4-53-1" class="s0" d="m53.1 10.1c-2.7 0-5-2.2-5-5 0-2.7 2.3-5 5-5 2.8 0 5 2.3 5 5 0 2.8-2.2 5-5 5z"/>
			</g>
		</g>
	</g>
</svg>